<svg width="44" height="44" viewBox="0 0 44 44" fill="none" xmlns="http://www.w3.org/2000/svg">
<g clip-path="url(#clip0_2_16)">
<path d="M42.2125 0.0601471C38.8867 1.05702 32.6047 3.0078 26.082 5.32812C25.9016 4.72655 25.7383 4.16796 25.6008 3.72968C25.343 2.89608 24.4062 2.50937 23.6328 2.91327C19.9891 4.81249 10.5016 10.0117 5.20781 15.1594C5.11328 15.2453 4.99297 15.3312 4.90703 15.4172C1.63281 18.6828 0 22.9711 0 27.2594C0 31.5391 1.63281 35.8273 4.89844 39.1016C8.16406 42.3672 12.4523 44.0086 16.7406 44C21.0289 44 25.3172 42.3672 28.5914 39.093C28.6773 39.007 28.7633 38.8867 28.8492 38.7922C33.9883 33.4984 39.1961 24.0023 41.0953 20.3672C41.4992 19.5937 41.1125 18.657 40.2789 18.3992C39.832 18.2617 39.282 18.0984 38.6805 17.918C41.0008 11.3867 42.9516 5.11327 43.9484 1.78749C44.2578 0.721866 43.2781 -0.257822 42.2125 0.0601471ZM16.5 38.5C10.4242 38.5 5.5 33.5758 5.5 27.5C5.5 21.4242 10.4242 16.5 16.5 16.5C22.5758 16.5 27.5 21.4242 27.5 27.5C27.5 33.5758 22.5758 38.5 16.5 38.5ZM13.75 22C12.2289 22 11 23.2289 11 24.75C11 26.2711 12.2289 27.5 13.75 27.5C15.2711 27.5 16.5 26.2711 16.5 24.75C16.5 23.2289 15.2711 22 13.75 22ZM17.875 30.25C17.1187 30.25 16.5 30.8687 16.5 31.625C16.5 32.3812 17.1187 33 17.875 33C18.6313 33 19.25 32.3812 19.25 31.625C19.25 30.8687 18.6313 30.25 17.875 30.25Z" fill="#E31621"/>
</g>
<defs>
<clipPath id="clip0_2_16">
<rect width="44" height="44" fill="white"/>
</clipPath>
</defs>
</svg>
