<svg width="44" height="44" viewBox="0 0 44 44" fill="none" xmlns="http://www.w3.org/2000/svg">
<path d="M22.0011 13.75C17.4548 13.75 13.7507 17.4539 13.7507 22C13.7507 26.5461 17.4548 30.25 22.0011 30.25C26.5474 30.25 30.2515 26.5461 30.2515 22C30.2515 17.4539 26.5474 13.75 22.0011 13.75ZM43.1771 20.668L35.0384 16.6031L37.9175 7.975C38.3042 6.80625 37.1956 5.69766 36.0353 6.09297L27.4068 8.97188L23.3332 0.825C22.7831 -0.275 21.219 -0.275 20.669 0.825L16.6039 8.96328L7.96679 6.08438C6.79799 5.69766 5.68934 6.80625 6.08467 7.96641L8.96372 16.5945L0.82504 20.668C-0.275013 21.218 -0.275013 22.782 0.82504 23.332L8.96372 27.3969L6.08467 36.0336C5.69793 37.2023 6.80658 38.3109 7.96679 37.9156L16.5953 35.0367L20.6604 43.175C21.2104 44.275 22.7745 44.275 23.3246 43.175L27.3896 35.0367L36.0182 37.9156C37.187 38.3023 38.2956 37.1937 37.9003 36.0336L35.0212 27.4055L43.1599 23.3406C44.2771 22.782 44.2771 21.218 43.1771 20.668ZM29.7788 29.7773C25.4903 34.0656 18.5118 34.0656 14.2233 29.7773C9.93486 25.4891 9.93486 18.5109 14.2233 14.2227C18.5118 9.93437 25.4903 9.93437 29.7788 14.2227C34.0673 18.5109 34.0673 25.4891 29.7788 29.7773Z" fill="#E31621"/>
</svg>
